<?xml version="1.0" encoding="UTF-8" standalone="no"?>
<svg width="1071px" height="404px" viewBox="0 0 1071 404" version="1.1" xmlns="http://www.w3.org/2000/svg" xmlns:xlink="http://www.w3.org/1999/xlink">
    <!-- Generator: Sketch 40.3 (33839) - http://www.bohemiancoding.com/sketch -->
    <title>logo_en_ae</title>
    <desc>Created with Sketch.</desc>
    <defs>
        <polygon id="path-1" points="0.5 404.5 1071.75 404.5 1071.75 0.75 0.5 0.75"></polygon>
    </defs>
    <g id="Page-1" stroke="none" stroke-width="1" fill="none" fill-rule="evenodd">
        <g id="logo_en_ae" transform="translate(-24.000000, -40.000000)">
            <polygon id="Shape" points="0 0 582 0 582 402 0 402"></polygon>
            <g id="Layer-1" transform="translate(23.000000, 39.000000)">
                <g id="Clipped">
                    <mask id="mask-2" fill="white">
                        <use xlink:href="#path-1"></use>
                    </mask>
                    <g id="Shape"></g>
                    <g id="Group" mask="url(#mask-2)">
                        <g transform="translate(536.125000, 202.625000) scale(1, -1) translate(-536.125000, -202.625000) translate(0.500000, 0.750000)" id="Shape">
                            <path d="M911.0475,299.40375 C903.54125,282.16375 887.1475,269.37875 864.07625,269.37875 C827.37625,269.37875 811.5325,299.40375 811.2575,321.91625 L811.2575,322.19125 C811.2575,350.54625 831.82,375.56625 863.51625,375.56625 C887.70375,375.56625 904.65375,361.94875 911.88375,344.435 C915.2175,337.48 916.60875,329.69375 916.33125,321.9175 C916.0525,314.13375 914.385,306.345 911.04875,299.405 L911.0475,299.40375 Z M944.96625,398.5125 C944.96625,401.1625 942.81625,403.3225 940.15625,403.3225 L920.8875,403.3225 C918.23375,403.3225 916.05,401.16875 916.05,398.5125 L916.05,371.395 C909.10625,385.85 889.9275,402.5325 859.9,402.5325 C815.9825,402.5325 782.34375,368.615 782.34375,322.4725 C782.34375,280.2175 811.25625,242.41625 859.89875,242.41625 C883.8075,242.41625 905.48875,252.97875 916.04875,273.26625 L916.04875,247.295 C916.0575,244.64875 918.2325,242.485 920.88625,242.485 L940.15375,242.485 C942.8125,242.485 944.96375,244.635 944.96375,247.295 L944.96375,398.5125 L944.96625,398.5125 Z M315.8125,387.2375 C304.69125,398.6375 289.1225,402.53125 275.22,402.53125 C258.82,402.53125 244.92,396.41 235.19875,386.685 C229.9075,381.40625 226.85625,376.12 224.34875,371.66875 C222.68,374.45375 218.51125,382.51625 214.62375,386.40375 C204.06125,398.3575 189.60625,402.53125 175.7075,402.53125 C153.745,402.53125 136.2325,389.46875 129.8325,376.67625 L129.84875,398.51375 C129.84875,401.16375 127.69125,403.32375 125.04,403.32375 L107.405,403.32375 C104.74625,403.32375 102.605,401.165 102.605,398.51375 L102.605,247.295 C102.605,244.63625 104.74625,242.485 107.405,242.485 L126.67,242.485 C129.3175,242.485 131.4925,244.64375 131.505,247.295 L131.505,329.695 C131.505,341.9325 134,352.4975 139.5625,360.55125 C144.575,368.89875 154.5825,375.56875 168.2075,375.28625 C182.38,375.01125 191.27375,369.16875 196.83,360.27875 C201.8425,351.94125 203.22375,342.76875 202.95,330.25625 L202.95,247.66875 C202.94,247.5475 202.9125,247.41875 202.9125,247.29625 C202.9125,244.6375 205.0625,242.48625 207.7175,242.48625 L227.73,242.48625 L227.7375,242.53125 C230.2025,242.73375 232.1525,244.77875 232.1525,247.29625 C232.1525,247.34625 232.14,247.39625 232.14,247.45625 L232.14,330.25625 C232.14,343.04375 232.975,351.38125 239.08625,360.8275 C244.64375,370.00875 255.48625,375.2875 268.27125,375.2875 C281.8925,375.2875 289.95875,370.56625 295.23125,362.775 C301.90625,354.1625 303.58125,341.65 303.58125,329.1425 L303.58125,249.475 L303.56,247.295 C303.56,244.63625 305.71625,242.485 308.3725,242.485 L327.86,242.485 C330.42625,242.5775 332.485,244.70125 332.485,247.295 L332.485,330.255 C332.485,359.1675 329.1425,373.625 315.81,387.2375 L315.8125,387.2375 Z M479.48125,299.40375 C471.9775,282.16375 455.57375,269.37875 432.49875,269.37875 C395.81625,269.37875 379.97125,299.40375 379.68625,321.91625 L379.68625,322.19125 C379.68625,350.54625 400.255,375.56625 431.9525,375.56625 C456.1375,375.56625 473.09,361.94875 480.3125,344.435 C483.6575,337.48 485.0375,329.69375 484.7625,321.9175 C484.49,314.13375 482.8175,306.345 479.48125,299.405 L479.48125,299.40375 Z M513.39375,398.5125 C513.39375,401.1625 511.24375,403.3225 508.58125,403.3225 L489.325,403.3225 C486.6775,403.3225 484.525,401.17625 484.51875,398.52 L484.49,398.5125 L484.49,371.395 C477.54,385.85 458.36,402.5325 428.33125,402.5325 C384.40875,402.5325 350.775,368.615 350.775,322.4725 C350.775,280.2175 379.6875,242.41625 428.33125,242.41625 C452.24,242.41625 473.91875,252.97875 484.49,273.26625 L484.49,247.295 C484.5025,244.64875 486.6775,242.485 489.325,242.485 L508.5825,242.485 C511.2425,242.485 513.3925,244.635 513.3925,247.295 L513.3925,398.5125 L513.39375,398.5125 Z M634.485,247.295 C634.485,244.63625 636.645,242.485 639.2975,242.485 L659.31,242.485 C661.785,242.6875 663.73,244.77625 663.73,247.295 L663.73,247.3825 L663.705,330.25375 C663.705,343.04125 664.54,351.37875 670.6675,360.82625 C676.2175,370.0075 687.0625,375.28625 699.85,375.28625 C713.4775,375.28625 721.5325,370.565 726.8125,362.77375 C733.4875,354.16125 735.16,341.64875 735.16,329.14125 L735.1475,247.29625 C735.1475,244.6375 737.29375,242.48625 739.95375,242.48625 L759.43625,242.48625 C762.00625,242.57875 764.05625,244.70125 764.05625,247.29625 L764.05625,330.255 C764.05625,359.1675 760.72625,373.625 747.39,387.23875 C736.26875,398.63875 720.7,402.5325 706.8025,402.5325 C690.4025,402.5325 676.49625,396.41125 666.77,386.68625 C661.4925,381.4075 658.42625,376.12125 655.9325,371.67 C654.26125,374.455 650.0925,382.5175 646.20375,386.405 C635.64125,398.35875 621.1825,402.5325 607.2825,402.5325 C585.325,402.5325 567.8075,389.4675 561.4075,376.6775 L561.42375,398.515 C561.42375,398.545 561.42375,398.4775 561.42375,398.515 C561.42375,401.165 559.2775,403.325 556.61375,403.325 L538.97875,403.325 C536.3325,403.325 534.17875,401.16625 534.17875,398.515 L534.17875,247.295 C534.17875,244.63625 536.3325,242.485 538.98625,242.485 L558.24875,242.485 C560.88625,242.485 563.07125,244.64375 563.07875,247.295 L563.07875,329.6925 C563.07875,341.9325 565.585,352.49625 571.14125,360.55125 C576.14875,368.8975 586.1575,375.5675 599.77875,375.28625 C613.9475,375.00875 622.85,369.16875 628.4075,360.27875 C633.41125,351.93875 634.8075,342.76875 634.525,330.25375 L634.485,247.29625 L634.485,247.295 Z M1021.3525,338.27125 C1005.22375,342.725 994.3925,348.28125 993.8275,360.23375 C993.5575,370.24625 1001.3375,379.6925 1015.5175,379.6925 C1028.4225,379.935 1035.5675,373.135 1037.1425,363.5975 C1037.1425,363.575 1037.15125,363.575 1037.15875,363.555 C1037.48125,361.21 1039.475,359.3975 1041.905,359.3975 L1060.74125,359.3975 C1063.39625,359.3975 1065.55,361.5475 1065.55,364.20625 C1065.55,364.34375 1065.5325,364.635 1065.525,364.69375 C1065.5125,364.7775 1065.41625,365.24375 1065.37875,365.415 C1060.47125,394.2525 1035.33875,403.32375 1015.79625,403.32375 C988.275,403.32375 964.92125,386.0825 964.92125,357.4525 C965.2,334.66 981.875,324.64875 1003,318.2625 C1029.9625,309.3625 1041.36,304.36 1041.64625,289.35375 C1041.64625,276.56 1030.80375,266.835 1016.90125,266.835 C1006.90125,266.835 993.60125,272.04125 990.7175,287.2425 C990.34875,289.5425 988.38,291.295 985.9875,291.295 L966.81,291.295 C964.155,291.295 962.00125,289.145 962.00125,286.4875 C962.00125,286.255 962.0425,286.0325 962.07625,285.80875 L962.16,285.34125 C966.545,255.26 994.15625,243.2075 1016.635,243.2075 C1046.6475,243.2075 1071.11,263.22375 1070.5575,292.6875 C1069.72,325.21 1044.42875,331.88125 1021.35375,338.27125 L1021.3525,338.27125 Z M318.87125,137.935 C318.87125,110.0975 299.25875,87.47875 271.305,85.06375 L231.125,85.06375 L231.125,190.79125 L271.3325,190.79125 C303.0925,188.14125 318.87,161.6875 318.87,138.22125 L318.87,137.93625 L318.87125,137.935 Z M271.61125,217.9925 C271.51375,217.9925 271.40625,217.985 271.30375,217.985 L208.64625,217.985 C208.62125,217.985 208.59375,217.9925 208.56625,217.9925 C205.91375,217.9925 203.7575,215.8425 203.7575,213.18 C203.7575,212.995 203.755,212.83375 203.765,212.63875 L203.765,5.1625 C203.76,5.06875 203.7575,4.96875 203.7575,4.875 C203.7575,2.22 205.91375,0.06875 208.56625,0.06875 L226.34375,0.06875 C229.00625,0.06875 231.15,2.21875 231.15,4.875 C231.15,4.98375 231.15375,5.08375 231.1475,5.1925 L231.125,57.8725 L271.82875,57.8725 L271.82875,57.88125 L271.89125,57.88125 C317.20125,57.88125 348.04875,94.29875 348.04875,137.10375 C348.04875,174.6225 323.58875,217.99125 271.61125,217.99125 L271.61125,217.9925 Z M1026.1125,198.6525 C1029.69375,198.6525 1033.22,198.765 1033.22,202.79 C1033.215,206.09625 1030.46125,206.8625 1027.595,206.8625 L1022.25125,206.85625 L1022.25375,198.64625 L1026.11375,198.65125 L1026.1125,198.6525 Z M1022.25625,185.645 L1019.3375,185.645 L1019.33125,209.3375 L1028.4225,209.34125 C1033.7675,209.345 1036.1375,207.02875 1036.14,202.7875 C1036.14,198.6025 1033.39,196.72875 1030.1875,196.175 L1037.24375,185.65375 L1033.83125,185.65375 L1027.15625,196.17375 L1022.2525,196.17 L1022.25625,185.6425 L1022.25625,185.645 Z M1009.47125,197.48625 C1009.47375,187.67875 1016.865,179.915 1026.78375,179.91875 C1036.69625,179.9225 1044.08375,187.69375 1044.0775,197.5 C1044.07375,207.3125 1036.68625,215.0775 1026.77,215.075 C1016.8525,215.07 1009.4675,207.295 1009.47,197.4875 L1009.47125,197.48625 Z M1047.2725,197.5 C1047.27625,185.9875 1038.3525,177 1026.7825,176.9975 C1015.2075,176.99375 1006.2825,185.9725 1006.27625,197.485 C1006.2725,209.00375 1015.19875,217.98875 1026.7675,217.99375 C1038.33875,217.9975 1047.27,209.01875 1047.27375,197.50125 L1047.2725,197.5 Z" fill="#444443"></path>
                            <path d="M75.65,84.9925 C50.7875,84.9925 30.56,105.51375 30.56,130.73875 C30.56,158.3575 54.45,172.91375 73.3775,181.51625 L128.015,129.06625 C116.1375,103.95375 104.31875,84.99375 75.6525,84.99375 M182.97125,175.47625 L182.97125,175.57625 L182.95875,212.99875 C182.95875,215.64875 180.84625,217.8275 178.19625,217.8275 L176.28125,217.8275 C174.2975,217.8275 172.685,216.7375 171.95375,215.0275 L171.89125,214.89 L143.2375,153.015 L94.03125,200.13625 L93.28125,200.8675 L74.38125,218.7375 L74.10625,218.98375 C73.30375,219.73875 72.5,220.49 71.7125,221.2275 C60.87875,231.3775 52.31875,239.3925 52.31875,254.6775 C52.31875,269.58125 62.86,281.855 77.6,284.435 L77.685,284.45 C80.01,284.785 81.81625,286.75 81.81625,289.1625 L81.81625,305.65375 L81.80375,305.65875 C81.79875,308.30875 79.65375,310.46375 77.00375,310.46375 C76.90625,310.46375 76.82625,310.46125 76.70375,310.455 C46.80625,307.48 24.48625,283.525 24.48625,254.0175 C24.48625,230.415 36.765,217.05 52.81125,202.0225 L54.255,200.685 C18.4875,181.8425 1.08,158.71625 1.08,130.08125 C1.08,90.60625 33.7975,58.48125 74,58.48125 C92.525,58.48125 107.82125,63.55625 120.775,73.99 C130.98375,82.2125 139.705,93.67125 148.03,109.85 L174.72375,83.205 L174.7825,83.1525 C175.65375,82.28 176.82,81.81 178.14875,81.81 C180.80375,81.81 182.95875,83.96625 182.95875,86.6175 L182.95875,111.6175 C182.95875,113.0425 182.35125,114.2975 181.36875,115.18 L181.34625,115.2025 L163.37125,133.055 L182.46625,173.38375 C182.77875,174.02125 182.97,174.72375 182.97,175.4775" fill="#DDC800"></path>
                            <path d="M951.30875,152.94 C935.18,157.39375 924.34875,162.95 923.78375,174.9025 C923.51375,184.915 931.29375,194.36125 945.47375,194.36125 C958.3775,194.6025 965.52375,187.80375 967.09875,178.265 C967.09875,178.2425 967.1075,178.2425 967.115,178.2225 C967.43625,175.8775 969.43,174.065 971.86,174.065 L990.69625,174.065 C993.35,174.065 995.50375,176.215 995.50375,178.8725 C995.50375,179.01 995.485,179.3025 995.47625,179.36 C995.46375,179.44375 995.36875,179.91 995.33125,180.08125 C990.42375,208.91875 965.29125,217.99 945.74875,217.99 C918.2275,217.99 894.87375,200.7525 894.87375,172.12 C895.15375,149.3275 911.8275,139.3175 932.9525,132.93 C959.9175,124.03 971.3125,119.02625 971.59875,104.02125 C971.59875,91.22625 960.75625,81.50125 946.85375,81.50125 C936.85375,81.50125 923.55,86.70625 920.66875,101.9075 C920.30125,104.2075 918.33125,105.96 915.94,105.96 L896.76625,105.96 C894.11125,105.96 891.9575,103.81 891.9575,101.15125 C891.9575,100.92 891.9975,100.6975 892.03,100.4725 L892.115,100.005 C896.5,69.92375 924.11,57.8725 946.59,57.8725 C976.6025,57.8725 1001.065,77.8875 1000.5125,107.35125 C999.675,139.87625 974.3825,146.545 951.30875,152.935 L951.30875,152.94 Z M841.01,114.07125 C833.50375,96.83 817.11,84.04625 794.03875,84.04625 C757.33875,84.04625 741.495,114.07125 741.22,136.58375 L741.22,136.85875 C741.22,165.21375 761.7825,190.23375 793.48,190.23375 C817.6675,190.23375 834.615,176.615 841.84625,159.10125 C845.18,152.14875 846.57125,144.36125 846.29375,136.58625 C846.015,128.80125 844.3475,121.01375 841.01125,114.07375 L841.01,114.07125 Z M874.92875,213.18125 C874.92875,215.83125 872.77875,217.99125 870.11625,217.99125 L850.85375,217.99125 C848.1975,217.99125 846.01625,215.83625 846.01625,213.18125 L846.01625,186.0625 C839.07,200.51625 819.89125,217.2 789.8625,217.2 C745.945,217.2 712.30625,183.28125 712.30625,137.14 C712.30625,94.885 741.21875,57.08375 789.86125,57.08375 C813.77,57.08375 835.4525,67.64375 846.01125,87.93375 L846.01125,61.9625 C846.02,59.315 848.195,57.1525 850.84875,57.1525 L870.115,57.1525 C872.775,57.1525 874.9275,59.3025 874.9275,61.9625 L874.9275,213.18 L874.92875,213.18125 Z M495.0375,114.07125 C487.53,96.83 471.13375,84.04625 448.0625,84.04625 C411.3625,84.04625 395.51875,114.07125 395.245,136.58375 L395.245,136.85875 C395.245,165.21375 415.8075,190.23375 447.50375,190.23375 C471.69125,190.23375 488.64125,176.615 495.87,159.10125 C499.20375,152.14875 500.595,144.36125 500.3175,136.58625 C500.04,128.80125 498.3725,121.01375 495.03625,114.07375 L495.0375,114.07125 Z M528.95125,213.18125 C528.95125,215.83125 526.80125,217.99125 524.14125,217.99125 L504.87625,217.99125 C502.22125,217.99125 500.03875,215.83625 500.03875,213.18125 L500.03875,186.0625 C493.09375,200.51625 473.91375,217.2 443.88625,217.2 C399.97,217.2 366.33125,183.28125 366.33125,137.14 C366.33125,94.885 395.24375,57.08375 443.88625,57.08375 C467.795,57.08375 489.4775,67.64375 500.03875,87.93375 L500.03875,61.9625 C500.04625,59.315 502.22125,57.1525 504.87625,57.1525 L524.14125,57.1525 C526.80125,57.1525 528.95125,59.3025 528.95125,61.9625 L528.95125,213.18 L528.95125,213.18125 Z M664.84625,137.935 C664.84625,110.0975 645.23375,87.47875 617.28,85.06375 L577.1,85.06375 L577.1,190.79125 L617.30875,190.79125 C649.06875,188.14125 664.84625,161.6875 664.84625,138.22125 L664.84625,137.93625 L664.84625,137.935 Z M617.58375,217.9925 C617.48875,217.9925 617.38375,217.985 617.28,217.985 L554.6225,217.985 C554.5975,217.985 554.57,217.9925 554.5425,217.9925 C551.8925,217.9925 549.73375,215.8425 549.73375,213.18 C549.73375,212.995 549.73125,212.83375 549.74125,212.63875 L549.74125,5.1625 C549.73625,5.06875 549.73375,4.96875 549.73375,4.875 C549.73375,2.22 551.89125,0.06875 554.5425,0.06875 L572.32,0.06875 C574.9825,0.06875 577.125,2.21875 577.125,4.875 C577.125,4.98375 577.12875,5.08375 577.1225,5.1925 L577.1,57.8725 L617.80375,57.8725 L617.80375,57.88125 L617.86625,57.88125 C663.17625,57.88125 694.025,94.29875 694.025,137.10375 C694.025,174.6225 669.565,217.99125 617.585,217.99125 L617.58375,217.9925 Z" fill="#444443"></path>
                        </g>
                    </g>
                </g>
            </g>
        </g>
    </g>
</svg>